HIERARCHY
ROOT Hips
{
	OFFSET 0.00000 0.00000 0.00000
	CHANNELS 6 Xposition Yposition Zposition Yrotation Zrotation Xrotation 
	JOINT Lumbar
	{
		OFFSET 0 0 0
		CHANNELS 3 Zrotation Xrotation Yrotation
		JOINT Neck
		{
			OFFSET 0.00 0.2701 0.00
			CHANNELS 3 Zrotation Xrotation Yrotation
			End Site
			{
				OFFSET 0.00 0.1379 0.00
			}
		}
		JOINT RightShoulder
		{
			OFFSET 0.0119 0.2289 0.1181
			CHANNELS 3 Zrotation Xrotation Yrotation
			JOINT RightElbow
			{
				OFFSET 0.00 -0.1475 0.00
				CHANNELS 2 Zrotation Yrotation
				JOINT RightWrist
				{
					OFFSET 0.00 -0.1605 0.00
					CHANNELS 2 Zrotation Xrotation
					End Site
					{
						OFFSET 0.0040 -0.1068 0.0006
					}
				}
			}
		}
		JOINT LeftShoulder
		{
			OFFSET 0.0119 0.2289 -0.1181
			CHANNELS 3 Zrotation Xrotation Yrotation
			JOINT LeftElbow
			{
				OFFSET 0.00 -0.1475 0.00
				CHANNELS 2 Zrotation Yrotation
				JOINT LeftWrist
				{
					OFFSET 0.00 -0.1605 0.00
					CHANNELS 2 Zrotation Xrotation
					End Site
					{
						OFFSET 0.0040 -0.1068 -0.0006
					}
				}
			}
		}
	}
	JOINT RightHip
	{
		OFFSET 0.0316 -0.0424 0.0458
		CHANNELS 3 Zrotation Xrotation Yrotation
		JOINT RightKnee
		{
			OFFSET 0.00 -0.2438 0.00
			CHANNELS 1 Zrotation
			JOINT RightAnkle
			{
				OFFSET 0.00 -0.2449 0.00
				CHANNELS 3 Zrotation Xrotation Yrotation
				End Site
				{
					OFFSET 0.1237 -0.0542 0.0051
				}
			}
		}
	}
	JOINT LeftHip
	{
		OFFSET 0.0316 -0.0424 -0.0458
		CHANNELS 3 Zrotation Xrotation Yrotation
		JOINT LeftKnee
		{
			OFFSET 0.00 -0.2438 0.00
			CHANNELS 1 Zrotation
			JOINT LeftAnkle
			{
				OFFSET 0.00 -0.2449 0.00
				CHANNELS 3 Zrotation Xrotation Yrotation
				End Site
				{
					OFFSET 0.1237 -0.0542 -0.0051
				}
			}
		}
	}
}
MOTION
Frames: 16
Frame Time: 0.02
-0.00017 0.00011 -0.00021 176.06855 -43.36625 0.59335 57.02048 1.19019 2.11809 -10.72292 -0.67385 0.1165 157.4417 -74.55911 -48.37631 12.93004 87.68349 -5.98977 -12.76763 -3.39601 102.36867 -0.76476 5.32898 0.56793 -20.24989 -16.09856 46.99552 -2.33256 -6.98536 -19.55246 -8.0035 -5.0778 -3.40715 49.97177 2.06828 6.54232 -24.61698 -8.35005 5.12035 3.46693
0.00015 0.00013 7e-05 175.98804 -43.47447 0.56781 56.98906 1.19558 2.168 -10.69682 -0.7123 0.11668 157.44378 -74.54919 -48.46479 12.95432 87.69061 -5.95926 -12.7821 -3.13856 102.34116 -0.95629 5.32898 0.56793 -20.2676 -16.09856 47.15723 -2.27113 -6.55413 -19.542 -8.05866 -5.10827 -3.42813 50.09502 2.14583 6.95763 -24.60673 -8.31529 5.08566 3.44498
0.00047 0.00016 0.00035 175.90775 -43.58242 0.54235 56.95767 1.20094 2.21778 -10.6708 -0.7507 0.11687 157.44576 -74.53929 -48.55317 12.97852 87.69771 -5.92884 -12.79653 -2.88211 102.31374 -1.14717 5.32898 0.56793 -20.28517 -16.09856 47.3185 -2.21002 -6.12473 -19.53152 -8.11359 -5.13859 -3.44903 50.21801 2.22298 7.37118 -24.59653 -8.28069 5.05111 3.42314
0.00079 0.00018 0.00062 175.82747 -43.69031 0.51688 56.92633 1.20631 2.26754 -10.64478 -0.78904 0.11705 157.44782 -74.52939 -48.64141 13.00273 87.70481 -5.89841 -12.81096 -2.62547 102.28632 -1.33808 5.32898 0.56794 -20.30283 -16.09856 47.47972 -2.1488 -5.69493 -19.52108 -8.16857 -5.16895 -3.46994 50.3409 2.30026 7.7851 -24.58631 -8.24605 5.01653 3.40127
0.00111 0.00021 0.0009 175.74701 -43.79846 0.49136 56.895 1.21173 2.31742 -10.61868 -0.82738 0.11724 157.45002 -74.51947 -48.72968 13.02701 87.71193 -5.8679 -12.82541 -2.36777 102.2588 -1.52971 5.32898 0.56794 -20.32063 -16.09855 47.64137 -2.0872 -5.26304 -19.51069 -8.22381 -5.19948 -3.49097 50.464 2.37799 8.20102 -24.57603 -8.21124 4.98178 3.37929
0.00143 0.00023 0.00118 175.66708 -43.90598 0.46602 56.8635 1.21695 2.36699 -10.59284 -0.86593 0.11742 157.45154 -74.50962 -48.81828 13.05103 87.719 -5.83768 -12.8398 -2.11398 102.23159 -1.71901 5.32898 0.56794 -20.33767 -16.09855 47.80184 -2.02714 -4.83888 -19.50002 -8.27809 -5.22936 -3.51157 50.58677 2.45394 8.60962 -24.56601 -8.17707 4.94767 3.35773
0.00175 0.00026 0.00145 175.58614 -44.01463 0.44032 56.83235 1.22255 2.41712 -10.5665 -0.90402 0.11762 157.45441 -74.49964 -48.90612 13.07556 87.72615 -5.8069 -12.85432 -1.85256 102.20381 -1.91266 5.32898 0.56794 -20.35634 -16.09855 47.96448 -1.96405 -4.39981 -19.48991 -8.33422 -5.2605 -3.53299 50.71006 2.53337 9.0323 -24.55548 -8.14166 4.91232 3.33537
0.00207 0.00028 0.00173 175.50616 -44.12226 0.41496 56.80089 1.22782 2.46673 -10.54062 -0.94253 0.1178 157.45607 -74.48979 -48.99467 13.09961 87.73323 -5.77663 -12.8687 -1.59827 102.17651 -2.10256 5.32898 0.56793 -20.37331 -16.09855 48.12514 -1.90374 -3.97417 -19.47929 -8.38869 -5.29051 -3.55368 50.83287 2.60963 9.44232 -24.54542 -8.10736 4.87808 3.31372
0.00239 0.0003 0.00201 175.42723 -44.22863 0.38998 56.76897 1.23261 2.51578 -10.51531 -0.98157 0.11797 157.45611 -74.48005 -49.08411 13.1231 87.74024 -5.747 -12.88297 -1.35222 102.14998 -2.28691 5.32898 0.56798 -20.38897 -16.09856 48.2834 -1.84688 -3.56612 -19.468 -8.44097 -5.31903 -3.5734 50.95515 2.68185 9.83566 -24.53593 -8.07456 4.8453 3.29303
0.00272 0.00033 0.00228 175.34185 -44.3422 0.36274 56.73949 1.23997 2.56828 -10.48675 -1.01762 0.11821 157.46504 -74.46953 -49.16852 13.14993 87.74771 -5.71372 -12.89806 -1.05732 102.11954 -2.50029 5.32898 0.56792 -20.41445 -16.09854 48.45553 -1.77035 -3.06042 -19.46043 -8.50538 -5.35579 -3.59848 51.08068 2.77683 10.32135 -24.52313 -8.03353 4.80443 3.26706
0.00302 0.00035 0.00257 175.27037 -44.4406 0.34029 56.70499 1.24201 2.61335 -10.46502 -1.05995 0.1183 157.45548 -74.46073 -49.26344 13.16964 87.75416 -5.68814 -12.9113 -0.86642 102.09703 -2.65426 5.32898 0.56793 -20.41777 -16.09854 48.59836 -1.73517 -2.75843 -19.44513 -8.54449 -5.37536 -3.61238 51.19922 2.82409 10.61454 -24.51735 -8.00964 4.78046 3.2521
0.00322 0.00037 0.00291 175.23503 -44.49677 0.33095 56.6554 1.22836 2.63906 -10.46237 -1.11968 0.11792 157.39241 -74.45601 -49.38855 13.17007 87.75822 -5.68405 -12.92056 -0.95613 102.09928 -2.62868 5.32898 0.56813 -20.37141 -16.0986 48.66015 -1.81608 -3.04053 -19.40748 -8.5109 -5.34552 -3.59421 51.29933 2.73659 10.35512 -24.53054 -8.035 4.80473 3.2688
0.00339 0.00038 0.00327 175.21402 -44.53781 0.32643 56.60098 1.20958 2.65713 -10.4665 -1.18565 0.11738 157.3112 -74.45315 -49.52407 13.16334 87.76119 -5.68767 -12.9278 -1.15107 102.109 -2.54669 5.32898 0.56757 -20.30069 -16.09845 48.69261 -1.93813 -3.52294 -19.36231 -8.45246 -5.29878 -3.56506 51.39221 2.60185 9.90699 -24.5508 -8.07712 4.84559 3.29628
0.00356 0.00039 0.00363 175.18779 -44.58617 0.31972 56.54963 1.19384 2.67803 -10.46731 -1.24867 0.11693 157.24021 -74.44987 -49.65378 13.15968 87.76441 -5.68749 -12.93522 -1.30112 102.11331 -2.501 5.32898 0.5684 -20.2339 -16.09869 48.73891 -2.03949 -3.89682 -19.32129 -8.40758 -5.26126 -3.54189 51.48797 2.49126 9.56102 -24.56801 -8.11014 4.87765 3.31787
0.00377 0.00041 0.00395 175.15621 -44.63264 0.31301 56.49464 1.17508 2.70159 -10.46922 -1.31228 0.1164 157.16119 -74.44479 -49.78759 13.15661 87.76868 -5.68846 -12.94564 -1.43942 102.12593 -2.40931 5.32898 0.56822 -20.19739 -16.09865 48.78308 -2.14891 -4.34335 -19.27704 -8.35326 -5.21733 -3.51461 51.58568 2.36936 9.14509 -24.58461 -8.1496 4.91516 3.3437
0.00391 0.00042 0.00436 175.13909 -44.67941 0.30744 56.446 1.1614 2.71784 -10.47037 -1.37603 0.11599 157.09413 -74.4439 -49.91594 13.15083 87.77049 -5.68904 -12.94949 -1.62665 102.12325 -2.40114 5.32899 0.56571 -20.09178 -16.09795 48.82463 -2.25184 -4.68807 -19.23788 -8.3125 -5.1826 -3.49317 51.67731 2.25966 8.83056 -24.60406 -8.17946 4.94513 3.36323
